<svg width="512" height="512" viewBox="0 0 512 512" fill="none" xmlns="http://www.w3.org/2000/svg">
<mask id="path-2-outside-1_773_253" maskUnits="userSpaceOnUse" x="138" y="69" width="246" height="389" fill="black">
<rect fill="white" x="138" y="69" width="246" height="389"/>
<path d="M261.066 375.29C246.572 375.29 234.047 372.968 223.493 368.324C213.079 363.54 204.495 357.559 197.74 350.382C191.126 343.064 186.201 335.606 182.964 328.007C179.868 320.408 178.32 313.794 178.32 308.165C178.32 303.239 179.376 299.792 181.487 297.822C183.738 295.711 186.764 294.655 190.563 294.655C194.363 294.655 197.248 295.781 199.218 298.033C201.329 300.284 203.088 303.521 204.495 307.743C207.169 315.342 210.898 322.167 215.683 328.218C220.608 334.269 226.8 339.054 234.258 342.572C241.857 346.09 250.934 347.849 261.488 347.849C274.857 347.849 285.693 344.542 293.995 337.928C302.439 331.173 306.661 322.237 306.661 311.12C306.661 301.691 304.198 294.163 299.273 288.534C294.347 282.764 287.804 278.05 279.642 274.391C271.62 270.591 262.755 267.144 253.045 264.048C243.476 260.952 233.836 257.363 224.126 253.282C214.557 249.201 205.691 243.924 197.529 237.451C189.508 230.978 183.035 222.534 178.109 212.121C173.184 201.707 170.721 188.549 170.721 172.648C170.721 154.213 174.451 138.663 181.909 125.998C189.367 113.333 199.992 103.763 213.783 97.29C227.574 90.676 243.898 87.369 262.755 87.369C279.501 87.369 293.644 89.4095 305.183 93.4905C316.722 97.5715 325.94 102.778 332.835 109.111C339.871 115.303 344.937 121.706 348.033 128.32C351.129 134.934 352.677 140.703 352.677 145.629C352.677 151.68 351.059 156.113 347.822 158.927C344.586 161.601 340.857 162.938 336.635 162.938C332.272 162.938 328.543 161.39 325.447 158.294C322.351 155.057 319.115 151.398 315.737 147.317C312.501 143.236 308.279 139.648 303.072 136.552C297.865 133.315 290.9 131.697 282.175 131.697C271.902 131.697 263.81 134.582 257.9 140.352C252.13 146.121 249.245 153.791 249.245 163.36C249.245 171.803 250.864 179.121 254.1 185.313C257.478 191.505 261.91 197.134 267.399 202.2C273.028 207.125 279.079 211.839 285.552 216.342C292.166 220.705 298.71 225.349 305.183 230.274C311.797 235.199 317.848 240.828 323.336 247.161C328.965 253.353 333.398 260.6 336.635 268.903C340.012 277.206 341.701 287.056 341.701 298.455C341.701 310.135 339.871 320.689 336.213 330.118C332.695 339.546 327.488 347.638 320.592 354.393C313.697 361.147 305.253 366.354 295.262 370.013C285.271 373.531 273.872 375.29 261.066 375.29ZM235.314 234.285C245.727 234.285 250.934 229.922 250.934 221.197C250.934 216.554 249.808 213.035 247.557 210.643C245.305 208.11 242.068 206.844 237.847 206.844C232.64 206.844 228.911 208.04 226.659 210.432C224.548 212.824 223.493 216.272 223.493 220.775C223.493 224.715 224.619 227.952 226.87 230.485C229.122 233.018 231.936 234.285 235.314 234.285ZM212.094 200.089C217.582 200.089 221.663 198.611 224.337 195.656C227.152 192.56 228.559 188.831 228.559 184.468C228.559 178.98 227.222 174.97 224.548 172.437C221.874 169.763 217.723 168.426 212.094 168.426C206.887 168.426 203.017 169.692 200.484 172.225C198.092 174.618 196.896 178.699 196.896 184.468C196.896 189.535 198.303 193.404 201.118 196.078C204.073 198.752 207.732 200.089 212.094 200.089ZM213.783 154.494C219.13 154.494 223.071 153.298 225.604 150.906C228.137 148.373 229.403 144.784 229.403 140.14C229.403 135.215 228.277 131.697 226.026 129.586C223.774 127.335 219.693 126.209 213.783 126.209C210.405 126.209 207.45 127.335 204.917 129.586C202.384 131.697 201.118 135.215 201.118 140.14C201.118 144.362 202.243 147.81 204.495 150.484C206.887 153.157 209.983 154.494 213.783 154.494ZM337.479 159.56C334.102 159.56 331.428 158.646 329.458 156.816C327.488 154.846 326.503 151.961 326.503 148.162C326.503 144.503 327.628 141.759 329.88 139.929C332.272 138.1 335.228 137.185 338.746 137.185C341.982 137.185 344.445 138.311 346.134 140.563C347.963 142.673 348.878 145.347 348.878 148.584C348.878 151.961 347.893 154.635 345.923 156.605C343.952 158.575 341.138 159.56 337.479 159.56ZM310.882 344.472L325.658 328.851C338.746 338.42 348.315 346.019 354.366 351.648C360.417 357.137 363.935 361.499 364.92 364.736C366.046 367.832 365.624 370.646 363.654 373.179C361.261 376.275 358.236 377.612 354.577 377.19C351.059 376.627 345.852 373.812 338.957 368.746C332.202 363.54 322.844 355.448 310.882 344.472ZM278.375 361.781L302.861 350.804C311.586 369.38 317.778 383.593 321.437 393.443C325.095 403.435 326.643 410.541 326.08 414.763C325.658 418.985 323.547 421.87 319.748 423.418C315.667 425.106 311.867 424.473 308.349 421.518C304.972 418.703 300.961 412.582 296.317 403.153C291.814 393.725 285.833 379.934 278.375 361.781ZM240.38 366.424L264.866 367.269C266.273 387.111 266.976 402.168 266.976 412.441C267.117 422.714 266.202 429.68 264.232 433.339C262.262 437.138 258.814 439.179 253.889 439.46C249.808 439.601 246.572 437.842 244.179 434.183C241.787 430.665 240.239 423.629 239.535 413.074C238.972 402.661 239.254 387.111 240.38 366.424ZM208.295 358.403C208.998 357.559 209.702 356.715 210.405 355.87C211.25 355.026 211.953 354.322 212.516 353.759C214.909 351.367 217.371 350.241 219.904 350.382C222.437 350.523 224.619 351.367 226.448 352.915C228.84 354.322 230.459 356.433 231.303 359.248C232.288 361.921 231.936 364.314 230.248 366.424C229.825 366.987 229.333 367.691 228.77 368.535C228.207 369.239 227.715 369.943 227.292 370.646C218.286 382.467 211.109 390.699 205.762 395.343C200.414 400.128 196.192 402.661 193.096 402.942C190.141 403.224 187.749 402.59 185.92 401.043C184.231 399.495 183.246 397.313 182.964 394.499C182.824 391.684 184.512 387.463 188.03 381.834C191.689 376.205 198.444 368.395 208.295 358.403ZM200.696 319.141L207.028 338.983C195.348 344.612 186.131 348.764 179.376 351.437C172.762 353.97 167.766 355.026 164.389 354.604C161.152 354.181 158.76 352.211 157.212 348.693C155.523 344.472 155.805 340.883 158.056 337.928C160.448 334.832 165.092 331.877 171.988 329.062C179.024 326.248 188.593 322.941 200.696 319.141Z"/>
</mask>
<path d="M261.066 375.29C246.572 375.29 234.047 372.968 223.493 368.324C213.079 363.54 204.495 357.559 197.74 350.382C191.126 343.064 186.201 335.606 182.964 328.007C179.868 320.408 178.32 313.794 178.32 308.165C178.32 303.239 179.376 299.792 181.487 297.822C183.738 295.711 186.764 294.655 190.563 294.655C194.363 294.655 197.248 295.781 199.218 298.033C201.329 300.284 203.088 303.521 204.495 307.743C207.169 315.342 210.898 322.167 215.683 328.218C220.608 334.269 226.8 339.054 234.258 342.572C241.857 346.09 250.934 347.849 261.488 347.849C274.857 347.849 285.693 344.542 293.995 337.928C302.439 331.173 306.661 322.237 306.661 311.12C306.661 301.691 304.198 294.163 299.273 288.534C294.347 282.764 287.804 278.05 279.642 274.391C271.62 270.591 262.755 267.144 253.045 264.048C243.476 260.952 233.836 257.363 224.126 253.282C214.557 249.201 205.691 243.924 197.529 237.451C189.508 230.978 183.035 222.534 178.109 212.121C173.184 201.707 170.721 188.549 170.721 172.648C170.721 154.213 174.451 138.663 181.909 125.998C189.367 113.333 199.992 103.763 213.783 97.29C227.574 90.676 243.898 87.369 262.755 87.369C279.501 87.369 293.644 89.4095 305.183 93.4905C316.722 97.5715 325.94 102.778 332.835 109.111C339.871 115.303 344.937 121.706 348.033 128.32C351.129 134.934 352.677 140.703 352.677 145.629C352.677 151.68 351.059 156.113 347.822 158.927C344.586 161.601 340.857 162.938 336.635 162.938C332.272 162.938 328.543 161.39 325.447 158.294C322.351 155.057 319.115 151.398 315.737 147.317C312.501 143.236 308.279 139.648 303.072 136.552C297.865 133.315 290.9 131.697 282.175 131.697C271.902 131.697 263.81 134.582 257.9 140.352C252.13 146.121 249.245 153.791 249.245 163.36C249.245 171.803 250.864 179.121 254.1 185.313C257.478 191.505 261.91 197.134 267.399 202.2C273.028 207.125 279.079 211.839 285.552 216.342C292.166 220.705 298.71 225.349 305.183 230.274C311.797 235.199 317.848 240.828 323.336 247.161C328.965 253.353 333.398 260.6 336.635 268.903C340.012 277.206 341.701 287.056 341.701 298.455C341.701 310.135 339.871 320.689 336.213 330.118C332.695 339.546 327.488 347.638 320.592 354.393C313.697 361.147 305.253 366.354 295.262 370.013C285.271 373.531 273.872 375.29 261.066 375.29ZM235.314 234.285C245.727 234.285 250.934 229.922 250.934 221.197C250.934 216.554 249.808 213.035 247.557 210.643C245.305 208.11 242.068 206.844 237.847 206.844C232.64 206.844 228.911 208.04 226.659 210.432C224.548 212.824 223.493 216.272 223.493 220.775C223.493 224.715 224.619 227.952 226.87 230.485C229.122 233.018 231.936 234.285 235.314 234.285ZM212.094 200.089C217.582 200.089 221.663 198.611 224.337 195.656C227.152 192.56 228.559 188.831 228.559 184.468C228.559 178.98 227.222 174.97 224.548 172.437C221.874 169.763 217.723 168.426 212.094 168.426C206.887 168.426 203.017 169.692 200.484 172.225C198.092 174.618 196.896 178.699 196.896 184.468C196.896 189.535 198.303 193.404 201.118 196.078C204.073 198.752 207.732 200.089 212.094 200.089ZM213.783 154.494C219.13 154.494 223.071 153.298 225.604 150.906C228.137 148.373 229.403 144.784 229.403 140.14C229.403 135.215 228.277 131.697 226.026 129.586C223.774 127.335 219.693 126.209 213.783 126.209C210.405 126.209 207.45 127.335 204.917 129.586C202.384 131.697 201.118 135.215 201.118 140.14C201.118 144.362 202.243 147.81 204.495 150.484C206.887 153.157 209.983 154.494 213.783 154.494ZM337.479 159.56C334.102 159.56 331.428 158.646 329.458 156.816C327.488 154.846 326.503 151.961 326.503 148.162C326.503 144.503 327.628 141.759 329.88 139.929C332.272 138.1 335.228 137.185 338.746 137.185C341.982 137.185 344.445 138.311 346.134 140.563C347.963 142.673 348.878 145.347 348.878 148.584C348.878 151.961 347.893 154.635 345.923 156.605C343.952 158.575 341.138 159.56 337.479 159.56ZM310.882 344.472L325.658 328.851C338.746 338.42 348.315 346.019 354.366 351.648C360.417 357.137 363.935 361.499 364.92 364.736C366.046 367.832 365.624 370.646 363.654 373.179C361.261 376.275 358.236 377.612 354.577 377.19C351.059 376.627 345.852 373.812 338.957 368.746C332.202 363.54 322.844 355.448 310.882 344.472ZM278.375 361.781L302.861 350.804C311.586 369.38 317.778 383.593 321.437 393.443C325.095 403.435 326.643 410.541 326.08 414.763C325.658 418.985 323.547 421.87 319.748 423.418C315.667 425.106 311.867 424.473 308.349 421.518C304.972 418.703 300.961 412.582 296.317 403.153C291.814 393.725 285.833 379.934 278.375 361.781ZM240.38 366.424L264.866 367.269C266.273 387.111 266.976 402.168 266.976 412.441C267.117 422.714 266.202 429.68 264.232 433.339C262.262 437.138 258.814 439.179 253.889 439.46C249.808 439.601 246.572 437.842 244.179 434.183C241.787 430.665 240.239 423.629 239.535 413.074C238.972 402.661 239.254 387.111 240.38 366.424ZM208.295 358.403C208.998 357.559 209.702 356.715 210.405 355.87C211.25 355.026 211.953 354.322 212.516 353.759C214.909 351.367 217.371 350.241 219.904 350.382C222.437 350.523 224.619 351.367 226.448 352.915C228.84 354.322 230.459 356.433 231.303 359.248C232.288 361.921 231.936 364.314 230.248 366.424C229.825 366.987 229.333 367.691 228.77 368.535C228.207 369.239 227.715 369.943 227.292 370.646C218.286 382.467 211.109 390.699 205.762 395.343C200.414 400.128 196.192 402.661 193.096 402.942C190.141 403.224 187.749 402.59 185.92 401.043C184.231 399.495 183.246 397.313 182.964 394.499C182.824 391.684 184.512 387.463 188.03 381.834C191.689 376.205 198.444 368.395 208.295 358.403ZM200.696 319.141L207.028 338.983C195.348 344.612 186.131 348.764 179.376 351.437C172.762 353.97 167.766 355.026 164.389 354.604C161.152 354.181 158.76 352.211 157.212 348.693C155.523 344.472 155.805 340.883 158.056 337.928C160.448 334.832 165.092 331.877 171.988 329.062C179.024 326.248 188.593 322.941 200.696 319.141Z" fill="black"/>
<path d="M223.493 368.324L215.978 384.68L216.11 384.741L216.243 384.8L223.493 368.324ZM197.74 350.382L184.387 362.452L184.508 362.586L184.633 362.719L197.74 350.382ZM182.964 328.007L166.295 334.798L166.348 334.93L166.404 335.06L182.964 328.007ZM181.487 297.822L193.768 310.981L193.783 310.967L193.798 310.953L181.487 297.822ZM199.218 298.033L185.672 309.886L185.875 310.118L186.086 310.344L199.218 298.033ZM204.495 307.743L187.419 313.435L187.466 313.576L187.515 313.717L204.495 307.743ZM215.683 328.218L201.563 339.382L201.642 339.482L201.722 339.581L215.683 328.218ZM234.258 342.572L226.579 358.852L226.637 358.879L226.696 358.906L234.258 342.572ZM293.995 337.928L305.211 352.007L305.225 351.995L305.24 351.983L293.995 337.928ZM299.273 288.534L285.582 300.221L285.654 300.304L285.726 300.387L299.273 288.534ZM279.642 274.391L271.936 290.658L272.107 290.739L272.279 290.816L279.642 274.391ZM253.045 264.048L247.504 281.174L247.54 281.186L247.577 281.197L253.045 264.048ZM224.126 253.282L217.065 269.84L217.108 269.858L217.152 269.876L224.126 253.282ZM197.529 237.451L186.225 251.459L186.284 251.507L186.344 251.554L197.529 237.451ZM178.109 212.121L194.381 204.425V204.425L178.109 212.121ZM181.909 125.998L166.398 116.864L166.398 116.864L181.909 125.998ZM213.783 97.29L221.431 113.584L221.499 113.552L221.567 113.52L213.783 97.29ZM305.183 93.4905L299.181 110.46H299.181L305.183 93.4905ZM332.835 109.111L320.66 122.368L320.801 122.498L320.944 122.624L332.835 109.111ZM348.033 128.32L364.336 120.689V120.689L348.033 128.32ZM347.822 158.927L359.286 172.804L359.462 172.659L359.634 172.51L347.822 158.927ZM325.447 158.294L312.44 170.736L312.578 170.88L312.719 171.022L325.447 158.294ZM315.737 147.317L301.634 158.502L301.751 158.649L301.87 158.794L315.737 147.317ZM303.072 136.552L293.569 151.839L293.72 151.933L293.873 152.024L303.072 136.552ZM257.9 140.352L245.326 127.471L245.249 127.547L245.172 127.624L257.9 140.352ZM254.1 185.313L238.148 193.651L238.222 193.792L238.298 193.932L254.1 185.313ZM267.399 202.2L255.19 215.426L255.365 215.588L255.546 215.746L267.399 202.2ZM285.552 216.342L275.273 231.119L275.456 231.246L275.641 231.368L285.552 216.342ZM305.183 230.274L294.284 244.599L294.358 244.655L294.432 244.711L305.183 230.274ZM323.336 247.161L309.734 258.95L309.874 259.111L310.017 259.269L323.336 247.161ZM336.635 268.903L319.864 275.441L319.912 275.563L319.961 275.685L336.635 268.903ZM336.213 330.118L319.432 323.606L319.389 323.715L319.348 323.825L336.213 330.118ZM320.592 354.393L333.188 367.251V367.251L320.592 354.393ZM295.262 370.013L301.24 386.991L301.346 386.954L301.452 386.915L295.262 370.013ZM247.557 210.643L234.103 222.602L234.273 222.793L234.449 222.98L247.557 210.643ZM226.659 210.432L213.551 198.095L213.353 198.306L213.162 198.523L226.659 210.432ZM224.337 195.656L211.018 183.548L211.004 183.564L210.989 183.58L224.337 195.656ZM224.548 172.437L211.82 185.165L211.992 185.336L212.169 185.504L224.548 172.437ZM200.484 172.225L213.212 184.953L213.212 184.953L200.484 172.225ZM201.118 196.078L188.72 209.128L188.879 209.279L189.041 209.426L201.118 196.078ZM225.604 150.906L237.963 163.992L238.15 163.816L238.332 163.634L225.604 150.906ZM226.026 129.586L213.298 142.314L213.503 142.519L213.715 142.718L226.026 129.586ZM204.917 129.586L216.441 143.414L216.661 143.23L216.876 143.04L204.917 129.586ZM204.495 150.484L190.727 162.078L190.901 162.285L191.081 162.486L204.495 150.484ZM329.458 156.816L316.73 169.544L316.966 169.78L317.21 170.006L329.458 156.816ZM329.88 139.929L318.946 125.631L318.735 125.792L318.529 125.959L329.88 139.929ZM346.134 140.563L331.734 151.363L332.115 151.871L332.531 152.351L346.134 140.563ZM345.923 156.605L358.65 169.333L358.651 169.333L345.923 156.605ZM310.882 344.472L297.806 332.102L285.247 345.378L298.712 357.734L310.882 344.472ZM325.658 328.851L336.283 314.321L323.48 304.96L312.582 316.482L325.658 328.851ZM354.366 351.648L342.106 364.828L342.189 364.905L342.273 364.981L354.366 351.648ZM364.92 364.736L347.7 369.977L347.84 370.436L348.004 370.887L364.92 364.736ZM363.654 373.179L349.445 362.128L349.428 362.151L349.411 362.173L363.654 373.179ZM354.577 377.19L351.733 394.964L352.122 395.026L352.514 395.071L354.577 377.19ZM338.957 368.746L327.968 383.003L328.132 383.129L328.299 383.252L338.957 368.746ZM278.375 361.781L271.012 345.355L255.098 352.489L261.726 368.621L278.375 361.781ZM302.861 350.804L319.153 343.152L311.635 327.145L295.498 334.379L302.861 350.804ZM321.437 393.443L338.339 387.254L338.325 387.215L338.31 387.176L321.437 393.443ZM326.08 414.763L308.238 412.384L308.199 412.678L308.17 412.972L326.08 414.763ZM319.748 423.418L312.957 406.748L312.911 406.767L312.866 406.785L319.748 423.418ZM308.349 421.518L319.927 407.735L319.9 407.712L319.873 407.69L308.349 421.518ZM296.317 403.153L280.075 410.911L280.122 411.009L280.17 411.107L296.317 403.153ZM240.38 366.424L241 348.435L223.365 347.827L222.406 365.446L240.38 366.424ZM264.866 367.269L282.821 365.995L281.675 349.838L265.486 349.279L264.866 367.269ZM266.976 412.441H248.976V412.564L248.978 412.688L266.976 412.441ZM264.232 433.339L248.384 424.805L248.317 424.928L248.253 425.053L264.232 433.339ZM253.889 439.46L254.509 457.449L254.713 457.442L254.916 457.431L253.889 439.46ZM244.179 434.183L259.245 424.333L259.155 424.196L259.064 424.061L244.179 434.183ZM239.535 413.074L221.562 414.046L221.568 414.159L221.575 414.272L239.535 413.074ZM208.295 358.403L221.112 371.041L221.641 370.505L222.123 369.927L208.295 358.403ZM210.405 355.87L197.678 343.142L197.1 343.72L196.577 344.347L210.405 355.87ZM212.516 353.759L199.788 341.031L199.788 341.031L212.516 353.759ZM219.904 350.382L220.903 332.41V332.41L219.904 350.382ZM226.448 352.915L214.821 366.656L215.996 367.65L217.322 368.43L226.448 352.915ZM231.303 359.248L214.062 364.42L214.221 364.95L214.413 365.47L231.303 359.248ZM230.248 366.424L216.192 355.18L216.016 355.4L215.848 355.624L230.248 366.424ZM228.77 368.535L242.826 379.78L243.314 379.17L243.747 378.52L228.77 368.535ZM227.292 370.646L241.61 381.555L242.214 380.762L242.727 379.907L227.292 370.646ZM205.762 395.343L193.959 381.753L193.859 381.84L193.759 381.929L205.762 395.343ZM193.096 402.942L191.467 385.016L191.428 385.02L191.39 385.023L193.096 402.942ZM185.92 401.043L173.756 414.311L174.02 414.553L174.293 414.783L185.92 401.043ZM182.964 394.499L164.987 395.398L165.009 395.845L165.054 396.29L182.964 394.499ZM188.03 381.834L172.938 372.024L172.851 372.158L172.766 372.294L188.03 381.834ZM200.696 319.141L217.843 313.669L212.396 296.601L195.304 301.968L200.696 319.141ZM207.028 338.983L214.843 355.198L228.931 348.409L224.176 333.511L207.028 338.983ZM179.376 351.437L185.814 368.247L185.907 368.211L186.001 368.174L179.376 351.437ZM164.389 354.604L162.061 372.452L162.108 372.459L162.156 372.465L164.389 354.604ZM157.212 348.693L140.499 355.378L140.613 355.662L140.736 355.943L157.212 348.693ZM158.056 337.928L143.813 326.922L143.776 326.97L143.738 327.019L158.056 337.928ZM171.988 329.062L165.303 312.35L165.244 312.373L165.186 312.397L171.988 329.062ZM261.066 375.29V357.29C248.447 357.29 238.505 355.264 230.742 351.849L223.493 368.324L216.243 384.8C229.589 390.672 244.696 393.29 261.066 393.29V375.29ZM223.493 368.324L231.008 351.968C222.362 347.995 215.778 343.284 210.848 338.045L197.74 350.382L184.633 362.719C193.212 371.834 203.797 379.084 215.978 384.68L223.493 368.324ZM197.74 350.382L211.094 338.312C205.567 332.197 201.843 326.396 199.525 320.953L182.964 328.007L166.404 335.06C170.559 344.815 176.686 353.931 184.387 362.452L197.74 350.382ZM182.964 328.007L199.634 321.215C197.049 314.87 196.32 310.657 196.32 308.165H178.32H160.32C160.32 316.931 162.688 325.945 166.295 334.798L182.964 328.007ZM178.32 308.165H196.32C196.32 306.883 196.47 306.675 196.324 307.154C196.155 307.705 195.527 309.339 193.768 310.981L181.487 297.822L169.205 284.663C161.572 291.787 160.32 301.581 160.32 308.165H178.32ZM181.487 297.822L193.798 310.953C193.019 311.683 192.141 312.174 191.373 312.442C190.663 312.69 190.317 312.655 190.563 312.655V294.655V276.655C183.302 276.655 175.494 278.766 169.176 284.69L181.487 297.822ZM190.563 294.655V312.655C190.717 312.655 190.09 312.681 189.033 312.268C187.878 311.817 186.66 311.015 185.672 309.886L199.218 298.033L212.764 286.18C206.497 279.016 198.049 276.655 190.563 276.655V294.655ZM199.218 298.033L186.086 310.344C185.913 310.159 186.021 310.222 186.305 310.744C186.589 311.266 186.983 312.128 187.419 313.435L204.495 307.743L221.571 302.05C219.678 296.371 216.843 290.515 212.35 285.722L199.218 298.033ZM204.495 307.743L187.515 313.717C190.82 323.108 195.491 331.703 201.563 339.382L215.683 328.218L229.802 317.054C226.305 312.631 223.518 307.575 221.475 301.768L204.495 307.743ZM215.683 328.218L201.722 339.581C208.444 347.838 216.828 354.252 226.579 358.852L234.258 342.572L241.937 326.292C236.772 323.856 232.772 320.7 229.643 316.855L215.683 328.218ZM234.258 342.572L226.696 358.906C237.198 363.768 248.981 365.849 261.488 365.849V347.849V329.849C252.886 329.849 246.516 328.411 241.82 326.237L234.258 342.572ZM261.488 347.849V365.849C277.853 365.849 292.969 361.758 305.211 352.007L293.995 337.928L282.78 323.849C278.416 327.325 271.861 329.849 261.488 329.849V347.849ZM293.995 337.928L305.24 351.983C318.091 341.703 324.661 327.526 324.661 311.12H306.661H288.661C288.661 316.948 286.787 320.644 282.751 323.872L293.995 337.928ZM306.661 311.12H324.661C324.661 298.505 321.304 286.378 312.819 276.681L299.273 288.534L285.726 300.387C287.092 301.948 288.661 304.878 288.661 311.12H306.661ZM299.273 288.534L312.963 276.847C306.022 268.717 297.169 262.522 287.005 257.966L279.642 274.391L272.279 290.816C278.439 293.578 282.672 296.811 285.582 300.221L299.273 288.534ZM279.642 274.391L287.347 258.124C278.504 253.935 268.878 250.203 258.513 246.898L253.045 264.048L247.577 281.197C256.632 284.084 264.737 287.248 271.936 290.658L279.642 274.391ZM253.045 264.048L258.586 246.922C249.524 243.99 240.362 240.581 231.1 236.688L224.126 253.282L217.152 269.876C227.31 274.146 237.427 277.914 247.504 281.174L253.045 264.048ZM224.126 253.282L231.187 236.725C223.098 233.275 215.619 228.824 208.714 223.348L197.529 237.451L186.344 251.554C195.763 259.024 206.016 265.127 217.065 269.84L224.126 253.282ZM197.529 237.451L208.834 223.443C203.159 218.864 198.285 212.678 194.381 204.425L178.109 212.121L161.838 219.817C167.785 232.391 175.857 243.091 186.225 251.459L197.529 237.451ZM178.109 212.121L194.381 204.425C190.941 197.151 188.721 186.84 188.721 172.648H170.721H152.721C152.721 190.258 155.427 206.263 161.838 219.817L178.109 212.121ZM170.721 172.648H188.721C188.721 156.618 191.957 144.407 197.419 135.132L181.909 125.998L166.398 116.864C156.944 132.918 152.721 151.808 152.721 172.648H170.721ZM181.909 125.998L197.419 135.132C202.968 125.709 210.795 118.577 221.431 113.584L213.783 97.29L206.135 80.9958C189.189 88.9499 175.767 100.956 166.398 116.864L181.909 125.998ZM213.783 97.29L221.567 113.52C232.429 108.31 245.978 105.369 262.755 105.369V87.369V69.369C241.817 69.369 222.718 73.0417 205.999 81.06L213.783 97.29ZM262.755 87.369V105.369C278.156 105.369 290.134 107.261 299.181 110.46L305.183 93.4905L311.185 76.5205C297.153 71.5581 280.845 69.369 262.755 69.369V87.369ZM305.183 93.4905L299.181 110.46C309.104 113.97 316.009 118.097 320.66 122.368L332.835 109.111L345.011 95.8533C335.87 87.4592 324.341 81.1734 311.185 76.5205L305.183 93.4905ZM332.835 109.111L320.944 122.624C326.627 127.625 329.937 132.119 331.731 135.951L348.033 128.32L364.336 120.689C359.938 111.292 353.116 102.981 344.727 95.598L332.835 109.111ZM348.033 128.32L331.731 135.951C334.203 141.232 334.677 144.3 334.677 145.629H352.677H370.677C370.677 137.107 368.056 128.636 364.336 120.689L348.033 128.32ZM352.677 145.629H334.677C334.677 147.115 334.471 147.55 334.555 147.319C334.605 147.181 334.733 146.881 334.992 146.495C335.256 146.101 335.599 145.702 336.011 145.344L347.822 158.927L359.634 172.51C368.211 165.051 370.677 154.675 370.677 145.629H352.677ZM347.822 158.927L336.358 145.05C336.293 145.104 336.28 145.106 336.321 145.083C336.364 145.058 336.434 145.023 336.524 144.991C336.613 144.959 336.685 144.943 336.724 144.936C336.762 144.93 336.737 144.938 336.635 144.938V162.938V180.938C345.015 180.938 352.804 178.159 359.286 172.804L347.822 158.927ZM336.635 162.938V144.938C336.63 144.938 336.973 144.947 337.467 145.152C337.959 145.356 338.197 145.587 338.175 145.566L325.447 158.294L312.719 171.022C319.177 177.48 327.479 180.938 336.635 180.938V162.938ZM325.447 158.294L338.455 145.852C335.705 142.977 332.755 139.648 329.604 135.841L315.737 147.317L301.87 158.794C305.474 163.149 308.998 167.138 312.44 170.736L325.447 158.294ZM315.737 147.317L329.84 136.132C325.041 130.081 319.058 125.116 312.271 121.08L303.072 136.552L293.873 152.024C297.5 154.18 299.96 156.392 301.634 158.502L315.737 147.317ZM303.072 136.552L312.575 121.265C303.552 115.656 292.907 113.697 282.175 113.697V131.697V149.697C288.892 149.697 292.178 150.974 293.569 151.839L303.072 136.552ZM282.175 131.697V113.697C268.41 113.697 255.374 117.663 245.326 127.471L257.9 140.352L270.473 153.232C272.247 151.501 275.393 149.697 282.175 149.697V131.697ZM257.9 140.352L245.172 127.624C235.446 137.35 231.245 149.906 231.245 163.36H249.245H267.245C267.245 157.675 268.814 154.893 270.628 153.079L257.9 140.352ZM249.245 163.36H231.245C231.245 174.107 233.313 184.402 238.148 193.651L254.1 185.313L270.052 176.974C268.414 173.84 267.245 169.499 267.245 163.36H249.245ZM254.1 185.313L238.298 193.932C242.668 201.944 248.346 209.109 255.19 215.426L267.399 202.2L279.608 188.973C275.475 185.158 272.287 181.065 269.902 176.693L254.1 185.313ZM267.399 202.2L255.546 215.746C261.702 221.133 268.282 226.255 275.273 231.119L285.552 216.342L295.831 201.566C289.876 197.423 284.353 193.117 279.252 188.653L267.399 202.2ZM285.552 216.342L275.641 231.368C281.909 235.502 288.123 239.912 294.284 244.599L305.183 230.274L316.082 215.949C309.296 210.786 302.423 205.907 295.463 201.317L285.552 216.342ZM305.183 230.274L294.432 244.711C299.986 248.847 305.084 253.584 309.734 258.95L323.336 247.161L336.939 235.372C330.612 228.072 323.608 221.552 315.934 215.837L305.183 230.274ZM323.336 247.161L310.017 259.269C314.071 263.728 317.375 269.056 319.864 275.441L336.635 268.903L353.406 262.365C349.421 252.144 343.86 242.978 336.655 235.053L323.336 247.161ZM336.635 268.903L319.961 275.685C322.26 281.336 323.701 288.775 323.701 298.455H341.701H359.701C359.701 285.337 357.764 273.075 353.308 262.12L336.635 268.903ZM341.701 298.455H323.701C323.701 308.248 322.17 316.549 319.432 323.606L336.213 330.118L352.993 336.63C357.573 324.829 359.701 312.022 359.701 298.455H341.701ZM336.213 330.118L319.348 323.825C316.714 330.886 312.924 336.707 307.996 341.534L320.592 354.393L333.188 367.251C342.052 358.568 348.675 348.206 353.077 336.41L336.213 330.118ZM320.592 354.393L307.996 341.534C303.104 346.326 296.913 350.239 289.072 353.111L295.262 370.013L301.452 386.915C313.594 382.469 324.289 375.969 333.188 367.251L320.592 354.393ZM295.262 370.013L289.284 353.035C281.567 355.752 272.248 357.29 261.066 357.29V375.29V393.29C275.496 393.29 288.975 391.31 301.24 386.991L295.262 370.013ZM235.314 234.285V252.285C242.595 252.285 251.409 250.826 258.589 244.81C266.379 238.284 268.934 229.253 268.934 221.197H250.934H232.934C232.934 221.626 232.866 221.19 233.233 220.269C233.643 219.238 234.398 218.113 235.469 217.216C236.472 216.375 237.263 216.142 237.306 216.13C237.322 216.126 237.178 216.167 236.835 216.208C236.493 216.249 235.994 216.285 235.314 216.285V234.285ZM250.934 221.197H268.934C268.934 213.868 267.155 205.203 260.664 198.307L247.557 210.643L234.449 222.98C233.519 221.991 233.099 221.039 232.946 220.562C232.817 220.16 232.934 220.281 232.934 221.197H250.934ZM247.557 210.643L261.01 198.685C254.532 191.397 245.848 188.844 237.847 188.844V206.844V224.844C238.181 224.844 237.749 224.895 236.881 224.556C235.925 224.182 234.914 223.513 234.103 222.602L247.557 210.643ZM237.847 206.844V188.844C230.508 188.844 220.751 190.446 213.551 198.095L226.659 210.432L239.767 222.769C238.436 224.182 237.123 224.726 236.642 224.881C236.254 225.005 236.534 224.844 237.847 224.844V206.844ZM226.659 210.432L213.162 198.523C207.15 205.337 205.493 213.679 205.493 220.775H223.493H241.493C241.493 219.885 241.602 219.734 241.496 220.081C241.371 220.49 241.006 221.378 240.156 222.341L226.659 210.432ZM223.493 220.775H205.493C205.493 228.363 207.767 236.088 213.417 242.444L226.87 230.485L240.324 218.527C240.783 219.043 241.135 219.66 241.338 220.245C241.527 220.789 241.493 221.029 241.493 220.775H223.493ZM226.87 230.485L213.417 242.444C219.071 248.804 226.774 252.285 235.314 252.285V234.285V216.285C235.929 216.285 236.93 216.413 238.056 216.92C239.181 217.426 239.931 218.084 240.324 218.527L226.87 230.485ZM212.094 200.089V218.089C220.678 218.089 230.459 215.719 237.685 207.732L224.337 195.656L210.989 183.58C211.361 183.169 211.775 182.82 212.192 182.546C212.603 182.277 212.943 182.128 213.143 182.056C213.509 181.923 213.277 182.089 212.094 182.089V200.089ZM224.337 195.656L237.656 207.764C243.621 201.203 246.559 193.099 246.559 184.468H228.559H210.559C210.559 184.684 210.53 184.532 210.663 184.182C210.723 184.022 210.798 183.873 210.876 183.746C210.953 183.622 211.011 183.556 211.018 183.548L224.337 195.656ZM228.559 184.468H246.559C246.559 176.458 244.632 166.669 236.928 159.369L224.548 172.437L212.169 185.504C211.645 185.007 211.244 184.49 210.956 184.02C210.673 183.558 210.536 183.203 210.48 183.036C210.385 182.752 210.559 183.114 210.559 184.468H228.559ZM224.548 172.437L237.276 159.709C229.884 152.316 220.185 150.426 212.094 150.426V168.426V186.426C212.797 186.426 213.289 186.468 213.601 186.511C213.912 186.553 213.999 186.59 213.912 186.562C213.819 186.532 213.54 186.432 213.147 186.201C212.745 185.965 212.281 185.625 211.82 185.165L224.548 172.437ZM212.094 168.426V150.426C204.28 150.426 194.938 152.316 187.757 159.498L200.484 172.225L213.212 184.953C212.743 185.422 212.26 185.782 211.821 186.043C211.388 186.299 211.054 186.428 210.885 186.483C210.59 186.58 210.889 186.426 212.094 186.426V168.426ZM200.484 172.225L187.757 159.498C180.273 166.981 178.896 177.077 178.896 184.468H196.896H214.896C214.896 183.638 214.94 183.034 214.989 182.628C215.039 182.218 215.086 182.076 215.066 182.143C215.03 182.268 214.63 183.536 213.212 184.953L200.484 172.225ZM196.896 184.468H178.896C178.896 192.889 181.326 202.103 188.72 209.128L201.118 196.078L213.515 183.028C213.852 183.348 214.151 183.71 214.396 184.09C214.639 184.467 214.786 184.794 214.868 185.019C215.025 185.451 214.896 185.37 214.896 184.468H196.896ZM201.118 196.078L189.041 209.426C195.63 215.387 203.726 218.089 212.094 218.089V200.089V182.089C211.769 182.089 211.883 182.043 212.256 182.179C212.432 182.244 212.618 182.332 212.799 182.441C212.979 182.551 213.111 182.656 213.194 182.731L201.118 196.078ZM213.783 154.494V172.494C221.34 172.494 230.684 170.866 237.963 163.992L225.604 150.906L213.244 137.82C214.339 136.785 215.307 136.438 215.52 136.373C215.612 136.345 215.531 136.379 215.23 136.417C214.93 136.456 214.457 136.494 213.783 136.494V154.494ZM225.604 150.906L238.332 163.634C245.158 156.808 247.403 148.082 247.403 140.14H229.403H211.403C211.403 140.856 211.303 140.825 211.479 140.324C211.684 139.745 212.124 138.929 212.876 138.178L225.604 150.906ZM229.403 140.14H247.403C247.403 133.124 245.89 123.536 238.337 116.454L226.026 129.586L213.715 142.718C212.203 141.301 211.603 139.879 211.415 139.294C211.257 138.801 211.403 138.959 211.403 140.14H229.403ZM226.026 129.586L238.754 116.858C231.201 109.306 220.788 108.209 213.783 108.209V126.209V144.209C214.7 144.209 215.381 144.253 215.857 144.307C216.338 144.361 216.527 144.415 216.49 144.405C216.484 144.403 214.983 143.999 213.298 142.314L226.026 129.586ZM213.783 126.209V108.209C205.98 108.209 198.774 110.964 192.959 116.133L204.917 129.586L216.876 143.04C216.629 143.259 216.145 143.606 215.441 143.874C214.737 144.142 214.134 144.209 213.783 144.209V126.209ZM204.917 129.586L193.394 115.758C185.063 122.701 183.118 132.562 183.118 140.14H201.118H219.118C219.118 139.135 219.258 139.198 219.004 139.905C218.7 140.747 217.949 142.157 216.441 143.414L204.917 129.586ZM201.118 140.14H183.118C183.118 147.687 185.204 155.52 190.727 162.078L204.495 150.484L218.263 138.889C218.458 139.12 218.632 139.374 218.778 139.638C218.923 139.9 219.016 140.131 219.073 140.305C219.187 140.653 219.118 140.658 219.118 140.14H201.118ZM204.495 150.484L191.081 162.486C197.109 169.224 205.204 172.494 213.783 172.494V154.494V136.494C214.027 136.494 214.773 136.546 215.747 136.967C216.746 137.398 217.479 138 217.909 138.481L204.495 150.484ZM337.479 159.56V141.56C337.397 141.56 337.903 141.548 338.767 141.843C339.692 142.16 340.749 142.737 341.706 143.626L329.458 156.816L317.21 170.006C323.303 175.665 330.772 177.56 337.479 177.56V159.56ZM329.458 156.816L342.186 144.088C343.323 145.225 343.965 146.447 344.276 147.358C344.558 148.185 344.503 148.55 344.503 148.162H326.503H308.503C308.503 154.956 310.306 163.12 316.73 169.544L329.458 156.816ZM326.503 148.162H344.503C344.503 148.164 344.503 148.359 344.442 148.706C344.38 149.059 344.254 149.574 344 150.192C343.447 151.54 342.495 152.872 341.231 153.899L329.88 139.929L318.529 125.959C311.004 132.074 308.503 140.626 308.503 148.162H326.503ZM329.88 139.929L340.814 154.228C340.279 154.637 339.706 154.914 339.213 155.066C338.749 155.21 338.548 155.185 338.746 155.185V137.185V119.185C331.966 119.185 324.986 121.012 318.946 125.631L329.88 139.929ZM338.746 137.185V155.185C338.278 155.185 337.067 155.1 335.536 154.4C333.924 153.663 332.62 152.544 331.734 151.363L346.134 140.563L360.534 129.763C354.904 122.256 346.68 119.185 338.746 119.185V137.185ZM346.134 140.563L332.531 152.351C331.912 151.637 331.443 150.804 331.161 149.977C330.891 149.188 330.878 148.664 330.878 148.584H348.878H366.878C366.878 141.745 364.845 134.669 359.736 128.774L346.134 140.563ZM348.878 148.584H330.878C330.878 148.533 330.885 147.886 331.249 146.9C331.636 145.85 332.295 144.776 333.195 143.877L345.923 156.605L358.651 169.333C364.691 163.293 366.878 155.654 366.878 148.584H348.878ZM345.923 156.605L333.195 143.877C334.254 142.818 335.426 142.169 336.388 141.832C337.269 141.524 337.727 141.56 337.479 141.56V159.56V177.56C344.359 177.56 352.346 175.638 358.65 169.333L345.923 156.605ZM310.882 344.472L323.959 356.841L338.735 341.221L325.658 328.851L312.582 316.482L297.806 332.102L310.882 344.472ZM325.658 328.851L315.034 343.381C327.982 352.849 336.856 359.944 342.106 364.828L354.366 351.648L366.626 338.469C359.774 332.095 349.509 323.992 336.283 314.321L325.658 328.851ZM354.366 351.648L342.273 364.981C344.89 367.355 346.557 369.128 347.531 370.336C348.006 370.924 348.197 371.232 348.221 371.274C348.26 371.339 347.978 370.888 347.7 369.977L364.92 364.736L382.14 359.495C380.678 354.688 377.936 350.69 375.554 347.737C373.011 344.583 369.893 341.43 366.459 338.315L354.366 351.648ZM364.92 364.736L348.004 370.887C347.704 370.062 347.347 368.497 347.647 366.498C347.95 364.476 348.78 362.984 349.445 362.128L363.654 373.179L377.862 384.23C383.754 376.654 385.01 367.311 381.837 358.584L364.92 364.736ZM363.654 373.179L349.411 362.173C349.712 361.784 350.626 360.786 352.315 360.039C354.057 359.27 355.657 359.195 356.64 359.308L354.577 377.19L352.514 395.071C362.897 396.269 371.94 391.894 377.897 384.185L363.654 373.179ZM354.577 377.19L357.421 359.416C358.551 359.597 358.43 359.815 356.593 358.822C354.961 357.94 352.66 356.479 349.614 354.241L338.957 368.746L328.299 383.252C332.148 386.08 335.899 388.559 339.474 390.492C342.844 392.313 347.085 394.22 351.733 394.964L354.577 377.19ZM338.957 368.746L349.946 354.49C343.813 349.763 334.908 342.088 323.052 331.209L310.882 344.472L298.712 357.734C310.78 368.808 320.591 377.316 327.968 383.003L338.957 368.746ZM278.375 361.781L285.738 378.206L310.224 367.229L302.861 350.804L295.498 334.379L271.012 345.355L278.375 361.781ZM302.861 350.804L286.569 358.457C295.24 376.919 301.173 390.584 304.563 399.711L321.437 393.443L338.31 387.176C334.383 376.601 327.931 361.84 319.153 343.152L302.861 350.804ZM321.437 393.443L304.534 399.633C306.198 404.177 307.214 407.619 307.754 410.098C308.352 412.843 308.116 413.303 308.238 412.384L326.08 414.763L343.923 417.142C344.608 412.001 343.879 406.797 342.929 402.436C341.921 397.808 340.334 392.702 338.339 387.254L321.437 393.443ZM326.08 414.763L308.17 412.972C308.218 412.489 308.486 411.06 309.654 409.464C310.845 407.836 312.234 407.042 312.957 406.748L319.748 423.418L326.539 440.087C331.061 438.245 335.406 435.235 338.707 430.722C341.986 426.241 343.521 421.259 343.991 416.554L326.08 414.763ZM319.748 423.418L312.866 406.785C313.47 406.535 314.911 406.14 316.797 406.454C318.637 406.761 319.698 407.543 319.927 407.735L308.349 421.518L296.772 435.301C300.519 438.448 305.239 441.024 310.878 441.964C316.564 442.912 321.945 441.989 326.63 440.05L319.748 423.418ZM308.349 421.518L319.873 407.69C320.158 407.927 319.451 407.372 317.865 404.951C316.393 402.706 314.589 399.513 312.465 395.2L296.317 403.153L280.17 411.107C284.794 420.495 290.213 429.835 296.826 435.346L308.349 421.518ZM296.317 403.153L312.56 395.396C308.276 386.425 302.445 373.002 295.025 354.94L278.375 361.781L261.726 368.621C269.222 386.866 275.353 401.024 280.075 410.911L296.317 403.153ZM240.38 366.424L239.759 384.414L264.245 385.258L264.866 367.269L265.486 349.279L241 348.435L240.38 366.424ZM264.866 367.269L246.911 368.542C248.31 388.274 248.976 402.821 248.976 412.441H266.976H284.976C284.976 401.515 284.236 385.948 282.821 365.995L264.866 367.269ZM266.976 412.441L248.978 412.688C249.042 417.315 248.855 420.696 248.549 423.027C248.208 425.628 247.857 425.783 248.384 424.805L264.232 433.339L280.081 441.872C282.577 437.236 283.67 432.078 284.243 427.714C284.851 423.079 285.052 417.84 284.975 412.195L266.976 412.441ZM264.232 433.339L248.253 425.053C248.709 424.174 249.625 423.043 251.001 422.228C252.262 421.482 253.106 421.476 252.862 421.489L253.889 439.46L254.916 457.431C265.034 456.853 274.822 452.02 280.212 441.624L264.232 433.339ZM253.889 439.46L253.269 421.471C254.082 421.443 255.493 421.614 256.996 422.431C258.443 423.217 259.115 424.134 259.245 424.333L244.179 434.183L229.114 444.033C234.657 452.512 243.617 457.825 254.509 457.449L253.889 439.46ZM244.179 434.183L259.064 424.061C259.749 425.069 259.379 425.015 258.804 422.4C258.29 420.064 257.812 416.631 257.495 411.877L239.535 413.074L221.575 414.272C221.962 420.073 222.61 425.434 223.644 430.135C224.617 434.556 226.217 439.779 229.295 444.305L244.179 434.183ZM239.535 413.074L257.509 412.103C257.001 402.698 257.235 387.94 258.353 367.403L240.38 366.424L222.406 365.446C221.272 386.281 220.944 402.624 221.562 414.046L239.535 413.074ZM208.295 358.403L222.123 369.927C222.826 369.082 223.53 368.238 224.233 367.393L210.405 355.87L196.577 344.347C195.874 345.191 195.17 346.036 194.467 346.88L208.295 358.403ZM210.405 355.87L223.133 368.598C223.978 367.754 224.681 367.05 225.244 366.487L212.516 353.759L199.788 341.031C199.226 341.594 198.522 342.298 197.678 343.142L210.405 355.87ZM212.516 353.759L225.244 366.487C225.287 366.444 224.78 366.971 223.641 367.491C222.401 368.058 220.75 368.457 218.906 368.354L219.904 350.382L220.903 332.41C211.702 331.898 204.531 336.288 199.788 341.031L212.516 353.759ZM219.904 350.382L218.906 368.354C218.447 368.329 217.754 368.221 216.942 367.907C216.12 367.589 215.397 367.143 214.821 366.656L226.448 352.915L238.075 339.174C233.075 334.944 227.1 332.754 220.903 332.41L219.904 350.382ZM226.448 352.915L217.322 368.43C216.609 368.011 215.833 367.368 215.171 366.505C214.521 365.657 214.201 364.884 214.062 364.42L231.303 359.248L248.544 354.075C246.479 347.194 242.124 341.253 235.574 337.4L226.448 352.915ZM231.303 359.248L214.413 365.47C214.051 364.488 213.635 362.7 213.969 360.428C214.311 358.107 215.283 356.315 216.192 355.18L230.248 366.424L244.303 377.669C250.184 370.318 251.215 361.226 248.193 353.025L231.303 359.248ZM230.248 366.424L215.848 355.624C215.16 356.542 214.468 357.539 213.793 358.551L228.77 368.535L243.747 378.52C244.198 377.843 244.491 377.433 244.648 377.224L230.248 366.424ZM228.77 368.535L214.714 357.291C213.696 358.564 212.732 359.927 211.857 361.385L227.292 370.646L242.727 379.907C242.697 379.958 242.718 379.914 242.826 379.78L228.77 368.535ZM227.292 370.646L212.975 359.737C204.087 371.402 197.834 378.388 193.959 381.753L205.762 395.343L217.564 408.934C224.384 403.011 232.485 393.532 241.61 381.555L227.292 370.646ZM205.762 395.343L193.759 381.929C191.586 383.873 190.127 384.914 189.324 385.397C188.945 385.624 188.903 385.611 189.168 385.509C189.42 385.412 190.221 385.13 191.467 385.016L193.096 402.942L194.726 420.868C200.095 420.38 204.624 418.2 207.846 416.266C211.264 414.215 214.59 411.598 217.764 408.758L205.762 395.343ZM193.096 402.942L191.39 385.023C191.619 385.002 192.466 384.953 193.692 385.278C194.992 385.622 196.354 386.293 197.546 387.302L185.92 401.043L174.293 414.783C180.667 420.177 188.247 421.486 194.803 420.861L193.096 402.942ZM185.92 401.043L198.083 387.774C199.114 388.72 199.854 389.809 200.319 390.837C200.76 391.815 200.856 392.517 200.875 392.708L182.964 394.499L165.054 396.29C165.668 402.429 168.088 409.115 173.756 414.311L185.92 401.043ZM182.964 394.499L200.942 393.6C201.005 394.868 200.842 395.718 200.781 395.992C200.717 396.284 200.691 396.274 200.838 395.907C201.15 395.127 201.869 393.654 203.294 391.374L188.03 381.834L172.766 372.294C170.674 375.642 168.79 379.095 167.413 382.537C166.128 385.749 164.731 390.291 164.987 395.398L182.964 394.499ZM188.03 381.834L203.122 391.643C205.734 387.626 211.402 380.89 221.112 371.041L208.295 358.403L195.477 345.766C185.486 355.899 177.645 364.783 172.938 372.024L188.03 381.834ZM200.696 319.141L183.548 324.614L189.88 344.456L207.028 338.983L224.176 333.511L217.843 313.669L200.696 319.141ZM207.028 338.983L199.214 322.768C187.673 328.33 178.908 332.264 172.751 334.701L179.376 351.437L186.001 368.174C193.353 365.263 203.024 360.894 214.843 355.198L207.028 338.983ZM179.376 351.437L172.938 334.628C170.203 335.675 168.243 336.244 166.948 336.517C165.528 336.817 165.596 336.615 166.621 336.743L164.389 354.604L162.156 372.465C170.236 373.475 178.812 370.928 185.814 368.247L179.376 351.437ZM164.389 354.604L166.717 336.755C168.261 336.956 170.057 337.636 171.61 338.915C173.048 340.099 173.594 341.232 173.688 341.444L157.212 348.693L140.736 355.943C144.291 364.021 151.375 371.059 162.061 372.452L164.389 354.604ZM157.212 348.693L173.924 342.008C173.844 341.807 174.226 342.653 174.101 344.243C173.962 346.014 173.274 347.655 172.374 348.837L158.056 337.928L143.738 327.019C136.745 336.197 137.073 346.812 140.499 355.378L157.212 348.693ZM158.056 337.928L172.299 348.934C171.819 349.555 171.773 349.354 172.997 348.575C174.158 347.837 176.015 346.86 178.79 345.728L171.988 329.062L165.186 312.397C157.572 315.505 149.214 319.932 143.813 326.922L158.056 337.928ZM171.988 329.062L178.673 345.775C185.097 343.205 194.174 340.055 206.087 336.315L200.696 319.141L195.304 301.968C183.013 305.826 172.952 309.29 165.303 312.35L171.988 329.062Z" fill="#C9A227" mask="url(#path-2-outside-1_773_253)"/>
<path d="M219.831 155.807C222.116 155.807 224.118 155.254 225.836 154.148C227.554 153.028 228.891 151.355 229.847 149.129C230.789 146.903 231.259 144.109 231.259 140.748C231.259 137.192 230.624 134.114 229.354 131.515C228.085 128.901 226.382 126.884 224.245 125.464C222.109 124.03 219.741 123.313 217.141 123.313C215.931 123.313 214.826 123.485 213.825 123.829C212.824 124.157 212.032 124.71 211.449 125.487C210.852 126.249 210.553 127.272 210.553 128.557C210.553 129.872 210.829 131 211.382 131.941C211.935 132.882 212.719 133.353 213.735 133.353C213.959 133.353 214.168 133.353 214.363 133.353C214.542 133.338 214.736 133.308 214.945 133.263C214.542 131.455 214.295 130.103 214.206 129.207C214.116 128.31 214.161 127.705 214.34 127.392C214.505 127.078 214.751 126.899 215.08 126.854C215.408 126.809 215.715 126.921 215.999 127.19C216.267 127.459 216.514 128.042 216.738 128.938C216.962 129.819 217.156 131.156 217.321 132.949C217.649 132.904 218.068 132.86 218.576 132.815C219.069 132.77 219.487 132.755 219.831 132.77C219.771 131.321 219.778 130.238 219.853 129.521C219.913 128.803 220.047 128.333 220.256 128.109C220.465 127.885 220.757 127.78 221.13 127.795C221.459 127.81 221.735 127.944 221.959 128.198C222.183 128.437 222.34 128.916 222.43 129.633C222.505 130.335 222.505 131.381 222.43 132.77C223.237 132.964 224.006 133.42 224.738 134.137C225.455 134.839 226.045 135.788 226.508 136.983C226.957 138.163 227.181 139.567 227.181 141.196C227.181 143.541 226.837 145.543 226.15 147.202C225.463 148.86 224.551 150.13 223.416 151.011C222.281 151.878 221.041 152.311 219.696 152.311C219.547 152.311 219.405 152.311 219.27 152.311C219.121 152.296 218.979 152.281 218.844 152.266C218.695 152.236 218.553 152.214 218.419 152.199C218.269 152.169 218.127 152.139 217.993 152.109C217.784 152.064 217.575 152.005 217.365 151.93C217.141 151.855 216.925 151.781 216.716 151.706C216.596 151.646 216.477 151.594 216.357 151.549C216.238 151.489 216.125 151.429 216.021 151.37C215.931 151.325 215.849 151.273 215.774 151.213C215.685 151.153 215.603 151.101 215.528 151.056C215.438 151.011 215.356 150.966 215.281 150.922C215.222 150.847 215.154 150.795 215.08 150.765C215.005 150.72 214.938 150.668 214.878 150.608C214.803 150.533 214.714 150.451 214.609 150.361C214.071 149.823 213.623 149.428 213.265 149.174C212.891 148.92 212.495 148.793 212.077 148.793C211.688 148.793 211.382 148.935 211.158 149.218C210.919 149.502 210.8 149.846 210.8 150.249C210.8 150.996 211.046 151.706 211.539 152.378C212.032 153.035 212.704 153.626 213.556 154.148C214.407 154.656 215.379 155.06 216.469 155.359C217.545 155.657 218.665 155.807 219.831 155.807ZM222.475 126.092C222.43 126.152 222.378 126.234 222.318 126.338C222.243 126.443 222.176 126.555 222.116 126.675C221.997 126.929 222.071 127.22 222.34 127.549C222.609 127.862 222.938 128.139 223.326 128.378C223.7 128.602 224.006 128.714 224.245 128.714C224.32 128.714 224.395 128.714 224.469 128.714C224.544 128.699 224.611 128.662 224.671 128.602C224.716 128.557 224.783 128.49 224.873 128.4C224.962 128.296 225.029 128.213 225.074 128.154C225.343 127.765 225.425 127.384 225.321 127.011C225.216 126.637 224.985 126.331 224.626 126.092C224.268 125.838 223.879 125.711 223.461 125.711C223.252 125.711 223.065 125.748 222.901 125.823C222.721 125.883 222.579 125.972 222.475 126.092ZM231.64 145.857C230.819 145.484 229.803 145.05 228.593 144.557C227.382 144.064 226.142 143.594 224.873 143.145C224.365 142.951 223.924 142.906 223.55 143.011C223.177 143.116 222.908 143.34 222.744 143.683C222.52 144.072 222.49 144.46 222.654 144.849C222.803 145.222 223.14 145.558 223.663 145.857C224.843 146.484 226.03 147.097 227.226 147.695C228.406 148.292 229.474 148.8 230.43 149.218C231.207 149.577 231.857 149.719 232.38 149.644C232.888 149.555 233.254 149.233 233.478 148.681C233.687 148.143 233.657 147.635 233.388 147.157C233.104 146.679 232.522 146.245 231.64 145.857ZM218.844 144.154C219.472 144.154 219.98 143.952 220.368 143.549C220.757 143.145 220.951 142.54 220.951 141.734C220.951 141.061 220.734 140.509 220.301 140.075C219.868 139.627 219.218 139.403 218.351 139.403C217.679 139.403 217.156 139.605 216.783 140.008C216.394 140.397 216.2 140.927 216.2 141.599C216.2 142.496 216.409 143.145 216.828 143.549C217.231 143.952 217.903 144.154 218.844 144.154ZM214.004 151.594C213.914 151.698 213.832 151.825 213.758 151.975C213.668 152.109 213.601 152.236 213.556 152.356C213.347 152.804 213.444 153.185 213.847 153.499C214.236 153.812 214.646 153.969 215.08 153.969C215.289 153.969 215.483 153.917 215.662 153.812C215.827 153.708 215.961 153.581 216.066 153.431C216.111 153.357 216.155 153.282 216.2 153.207C216.23 153.118 216.26 153.043 216.29 152.983L214.004 151.594ZM216.783 154.686C216.663 155.493 216.559 156.3 216.469 157.106C216.379 157.928 216.305 158.765 216.245 159.616C216.215 160.259 216.342 160.729 216.626 161.028C216.91 161.342 217.373 161.499 218.015 161.499C218.508 161.499 218.889 161.342 219.158 161.028C219.412 160.714 219.577 160.214 219.651 159.527C219.711 158.81 219.771 158.055 219.831 157.263C219.89 156.472 219.935 155.642 219.965 154.776C219.965 154.328 219.801 153.984 219.472 153.745C219.143 153.506 218.792 153.387 218.419 153.387C218.03 153.387 217.679 153.491 217.365 153.7C217.052 153.909 216.858 154.238 216.783 154.686Z" fill="black"/>
<path d="M211.114 155.807C208.828 155.807 206.826 155.254 205.108 154.148C203.39 153.028 202.053 151.355 201.097 149.129C200.156 146.903 199.685 144.109 199.685 140.748C199.685 137.192 200.32 134.114 201.59 131.515C202.86 128.901 204.563 126.884 206.699 125.464C208.836 124.03 211.203 123.313 213.803 123.313C215.013 123.313 216.119 123.485 217.12 123.829C218.12 124.157 218.912 124.71 219.495 125.487C220.093 126.249 220.391 127.272 220.391 128.557C220.391 129.872 220.115 131 219.562 131.941C219.009 132.882 218.225 133.353 217.209 133.353C216.985 133.353 216.776 133.353 216.582 133.353C216.402 133.338 216.208 133.308 215.999 133.263C216.402 131.455 216.649 130.103 216.739 129.207C216.828 128.31 216.783 127.705 216.604 127.392C216.44 127.078 216.193 126.899 215.865 126.854C215.536 126.809 215.23 126.921 214.946 127.19C214.677 127.459 214.43 128.042 214.206 128.938C213.982 129.819 213.788 131.156 213.624 132.949C213.295 132.904 212.877 132.86 212.369 132.815C211.876 132.77 211.457 132.755 211.114 132.77C211.174 131.321 211.166 130.238 211.091 129.521C211.032 128.803 210.897 128.333 210.688 128.109C210.479 127.885 210.188 127.78 209.814 127.795C209.485 127.81 209.209 127.944 208.985 128.198C208.761 128.437 208.604 128.916 208.514 129.633C208.44 130.335 208.44 131.381 208.514 132.77C207.708 132.964 206.938 133.42 206.206 134.137C205.489 134.839 204.899 135.788 204.436 136.983C203.988 138.163 203.764 139.567 203.764 141.196C203.764 143.541 204.107 145.543 204.794 147.202C205.482 148.86 206.393 150.13 207.528 151.011C208.664 151.878 209.904 152.311 211.248 152.311C211.398 152.311 211.54 152.311 211.674 152.311C211.823 152.296 211.965 152.281 212.1 152.266C212.249 152.236 212.391 152.214 212.526 152.199C212.675 152.169 212.817 152.139 212.951 152.109C213.161 152.064 213.37 152.005 213.579 151.93C213.803 151.855 214.02 151.781 214.229 151.706C214.348 151.646 214.468 151.594 214.587 151.549C214.707 151.489 214.819 151.429 214.923 151.37C215.013 151.325 215.095 151.273 215.17 151.213C215.26 151.153 215.342 151.101 215.416 151.056C215.506 151.011 215.588 150.966 215.663 150.922C215.723 150.847 215.79 150.795 215.865 150.765C215.939 150.72 216.007 150.668 216.066 150.608C216.141 150.533 216.231 150.451 216.335 150.361C216.873 149.823 217.321 149.428 217.68 149.174C218.053 148.92 218.449 148.793 218.867 148.793C219.256 148.793 219.562 148.935 219.786 149.218C220.025 149.502 220.145 149.846 220.145 150.249C220.145 150.996 219.898 151.706 219.405 152.378C218.912 153.035 218.24 153.626 217.388 154.148C216.537 154.656 215.566 155.06 214.475 155.359C213.4 155.657 212.279 155.807 211.114 155.807ZM208.47 126.092C208.514 126.152 208.567 126.234 208.626 126.338C208.701 126.443 208.768 126.555 208.828 126.675C208.948 126.929 208.873 127.22 208.604 127.549C208.335 127.862 208.006 128.139 207.618 128.378C207.244 128.602 206.938 128.714 206.699 128.714C206.624 128.714 206.55 128.714 206.475 128.714C206.4 128.699 206.333 128.662 206.273 128.602C206.229 128.557 206.161 128.49 206.072 128.4C205.982 128.296 205.915 128.213 205.87 128.154C205.601 127.765 205.519 127.384 205.624 127.011C205.728 126.637 205.96 126.331 206.318 126.092C206.677 125.838 207.065 125.711 207.484 125.711C207.693 125.711 207.879 125.748 208.044 125.823C208.223 125.883 208.365 125.972 208.47 126.092ZM199.304 145.857C200.126 145.484 201.142 145.05 202.352 144.557C203.562 144.064 204.802 143.594 206.072 143.145C206.58 142.951 207.02 142.906 207.394 143.011C207.767 143.116 208.036 143.34 208.201 143.683C208.425 144.072 208.455 144.46 208.29 144.849C208.141 145.222 207.805 145.558 207.282 145.857C206.102 146.484 204.914 147.097 203.719 147.695C202.539 148.292 201.47 148.8 200.514 149.218C199.737 149.577 199.087 149.719 198.565 149.644C198.057 149.555 197.691 149.233 197.467 148.681C197.257 148.143 197.287 147.635 197.556 147.157C197.84 146.679 198.423 146.245 199.304 145.857ZM212.1 144.154C211.472 144.154 210.964 143.952 210.576 143.549C210.188 143.145 209.993 142.54 209.993 141.734C209.993 141.061 210.21 140.509 210.643 140.075C211.076 139.627 211.726 139.403 212.593 139.403C213.265 139.403 213.788 139.605 214.162 140.008C214.55 140.397 214.744 140.927 214.744 141.599C214.744 142.496 214.535 143.145 214.117 143.549C213.713 143.952 213.041 144.154 212.1 144.154ZM216.94 151.594C217.03 151.698 217.112 151.825 217.187 151.975C217.276 152.109 217.344 152.236 217.388 152.356C217.598 152.804 217.5 153.185 217.097 153.499C216.709 153.812 216.298 153.969 215.865 153.969C215.655 153.969 215.461 153.917 215.282 153.812C215.118 153.708 214.983 153.581 214.879 153.431C214.834 153.357 214.789 153.282 214.744 153.207C214.714 153.118 214.684 153.043 214.655 152.983L216.94 151.594ZM214.162 154.686C214.281 155.493 214.386 156.3 214.475 157.106C214.565 157.928 214.64 158.765 214.699 159.616C214.729 160.259 214.602 160.729 214.318 161.028C214.035 161.342 213.571 161.499 212.929 161.499C212.436 161.499 212.055 161.342 211.786 161.028C211.532 160.714 211.368 160.214 211.293 159.527C211.233 158.81 211.174 158.055 211.114 157.263C211.054 156.472 211.009 155.642 210.979 154.776C210.979 154.328 211.144 153.984 211.472 153.745C211.801 153.506 212.152 153.387 212.526 153.387C212.914 153.387 213.265 153.491 213.579 153.7C213.893 153.909 214.087 154.238 214.162 154.686Z" fill="black"/>
<path d="M241.831 234.807C244.116 234.807 246.118 234.254 247.836 233.148C249.554 232.028 250.891 230.355 251.847 228.129C252.789 225.903 253.259 223.109 253.259 219.748C253.259 216.192 252.624 213.114 251.354 210.515C250.085 207.901 248.382 205.884 246.245 204.464C244.109 203.03 241.741 202.313 239.141 202.313C237.931 202.313 236.826 202.485 235.825 202.829C234.824 203.157 234.032 203.71 233.449 204.487C232.852 205.249 232.553 206.272 232.553 207.557C232.553 208.872 232.829 210 233.382 210.941C233.935 211.882 234.719 212.353 235.735 212.353C235.959 212.353 236.168 212.353 236.363 212.353C236.542 212.338 236.736 212.308 236.945 212.263C236.542 210.455 236.295 209.103 236.206 208.207C236.116 207.31 236.161 206.705 236.34 206.392C236.505 206.078 236.751 205.899 237.08 205.854C237.408 205.809 237.715 205.921 237.999 206.19C238.267 206.459 238.514 207.042 238.738 207.938C238.962 208.819 239.156 210.156 239.321 211.949C239.649 211.904 240.068 211.86 240.576 211.815C241.069 211.77 241.487 211.755 241.831 211.77C241.771 210.321 241.778 209.238 241.853 208.521C241.913 207.803 242.047 207.333 242.256 207.109C242.465 206.885 242.757 206.78 243.13 206.795C243.459 206.81 243.735 206.944 243.959 207.198C244.183 207.437 244.34 207.916 244.43 208.633C244.505 209.335 244.505 210.381 244.43 211.77C245.237 211.964 246.006 212.42 246.738 213.137C247.455 213.839 248.045 214.788 248.508 215.983C248.957 217.163 249.181 218.567 249.181 220.196C249.181 222.541 248.837 224.543 248.15 226.202C247.463 227.86 246.551 229.13 245.416 230.011C244.281 230.878 243.041 231.311 241.696 231.311C241.547 231.311 241.405 231.311 241.27 231.311C241.121 231.296 240.979 231.281 240.844 231.266C240.695 231.236 240.553 231.214 240.419 231.199C240.269 231.169 240.127 231.139 239.993 231.109C239.784 231.064 239.575 231.005 239.365 230.93C239.141 230.855 238.925 230.781 238.716 230.706C238.596 230.646 238.477 230.594 238.357 230.549C238.238 230.489 238.125 230.429 238.021 230.37C237.931 230.325 237.849 230.273 237.774 230.213C237.685 230.153 237.603 230.101 237.528 230.056C237.438 230.011 237.356 229.966 237.281 229.922C237.222 229.847 237.154 229.795 237.08 229.765C237.005 229.72 236.938 229.668 236.878 229.608C236.803 229.533 236.714 229.451 236.609 229.361C236.071 228.823 235.623 228.428 235.265 228.174C234.891 227.92 234.495 227.793 234.077 227.793C233.688 227.793 233.382 227.935 233.158 228.218C232.919 228.502 232.8 228.846 232.8 229.249C232.8 229.996 233.046 230.706 233.539 231.378C234.032 232.035 234.704 232.626 235.556 233.148C236.407 233.656 237.379 234.06 238.469 234.359C239.545 234.657 240.665 234.807 241.831 234.807ZM244.475 205.092C244.43 205.152 244.378 205.234 244.318 205.338C244.243 205.443 244.176 205.555 244.116 205.675C243.997 205.929 244.071 206.22 244.34 206.549C244.609 206.862 244.938 207.139 245.326 207.378C245.7 207.602 246.006 207.714 246.245 207.714C246.32 207.714 246.395 207.714 246.469 207.714C246.544 207.699 246.611 207.662 246.671 207.602C246.716 207.557 246.783 207.49 246.873 207.4C246.962 207.296 247.029 207.213 247.074 207.154C247.343 206.765 247.425 206.384 247.321 206.011C247.216 205.637 246.985 205.331 246.626 205.092C246.268 204.838 245.879 204.711 245.461 204.711C245.252 204.711 245.065 204.748 244.901 204.823C244.721 204.883 244.579 204.972 244.475 205.092ZM253.64 224.857C252.819 224.484 251.803 224.05 250.593 223.557C249.382 223.064 248.142 222.594 246.873 222.145C246.365 221.951 245.924 221.906 245.55 222.011C245.177 222.116 244.908 222.34 244.744 222.683C244.52 223.072 244.49 223.46 244.654 223.849C244.803 224.222 245.14 224.558 245.663 224.857C246.843 225.484 248.03 226.097 249.226 226.695C250.406 227.292 251.474 227.8 252.43 228.218C253.207 228.577 253.857 228.719 254.38 228.644C254.888 228.555 255.254 228.233 255.478 227.681C255.687 227.143 255.657 226.635 255.388 226.157C255.104 225.679 254.522 225.245 253.64 224.857ZM240.844 223.154C241.472 223.154 241.98 222.952 242.368 222.549C242.757 222.145 242.951 221.54 242.951 220.734C242.951 220.061 242.734 219.509 242.301 219.075C241.868 218.627 241.218 218.403 240.351 218.403C239.679 218.403 239.156 218.605 238.783 219.008C238.394 219.397 238.2 219.927 238.2 220.599C238.2 221.496 238.409 222.145 238.828 222.549C239.231 222.952 239.903 223.154 240.844 223.154ZM236.004 230.594C235.914 230.698 235.832 230.825 235.758 230.975C235.668 231.109 235.601 231.236 235.556 231.356C235.347 231.804 235.444 232.185 235.847 232.499C236.236 232.812 236.646 232.969 237.08 232.969C237.289 232.969 237.483 232.917 237.662 232.812C237.827 232.708 237.961 232.581 238.066 232.431C238.111 232.357 238.155 232.282 238.2 232.207C238.23 232.118 238.26 232.043 238.29 231.983L236.004 230.594ZM238.783 233.686C238.663 234.493 238.559 235.3 238.469 236.106C238.379 236.928 238.305 237.765 238.245 238.616C238.215 239.259 238.342 239.729 238.626 240.028C238.91 240.342 239.373 240.499 240.015 240.499C240.508 240.499 240.889 240.342 241.158 240.028C241.412 239.714 241.577 239.214 241.651 238.527C241.711 237.81 241.771 237.055 241.831 236.263C241.89 235.472 241.935 234.642 241.965 233.776C241.965 233.328 241.801 232.984 241.472 232.745C241.143 232.506 240.792 232.387 240.419 232.387C240.03 232.387 239.679 232.491 239.365 232.7C239.052 232.909 238.858 233.238 238.783 233.686Z" fill="black"/>
<path d="M233.114 234.807C230.828 234.807 228.826 234.254 227.108 233.148C225.39 232.028 224.053 230.355 223.097 228.129C222.156 225.903 221.685 223.109 221.685 219.748C221.685 216.192 222.32 213.114 223.59 210.515C224.86 207.901 226.563 205.884 228.699 204.464C230.836 203.03 233.203 202.313 235.803 202.313C237.013 202.313 238.119 202.485 239.12 202.829C240.12 203.157 240.912 203.71 241.495 204.487C242.093 205.249 242.391 206.272 242.391 207.557C242.391 208.872 242.115 210 241.562 210.941C241.009 211.882 240.225 212.353 239.209 212.353C238.985 212.353 238.776 212.353 238.582 212.353C238.402 212.338 238.208 212.308 237.999 212.263C238.402 210.455 238.649 209.103 238.739 208.207C238.828 207.31 238.783 206.705 238.604 206.392C238.44 206.078 238.193 205.899 237.865 205.854C237.536 205.809 237.23 205.921 236.946 206.19C236.677 206.459 236.43 207.042 236.206 207.938C235.982 208.819 235.788 210.156 235.624 211.949C235.295 211.904 234.877 211.86 234.369 211.815C233.876 211.77 233.457 211.755 233.114 211.77C233.174 210.321 233.166 209.238 233.091 208.521C233.032 207.803 232.897 207.333 232.688 207.109C232.479 206.885 232.188 206.78 231.814 206.795C231.485 206.81 231.209 206.944 230.985 207.198C230.761 207.437 230.604 207.916 230.514 208.633C230.44 209.335 230.44 210.381 230.514 211.77C229.708 211.964 228.938 212.42 228.206 213.137C227.489 213.839 226.899 214.788 226.436 215.983C225.988 217.163 225.764 218.567 225.764 220.196C225.764 222.541 226.107 224.543 226.794 226.202C227.482 227.86 228.393 229.13 229.528 230.011C230.664 230.878 231.904 231.311 233.248 231.311C233.398 231.311 233.54 231.311 233.674 231.311C233.823 231.296 233.965 231.281 234.1 231.266C234.249 231.236 234.391 231.214 234.526 231.199C234.675 231.169 234.817 231.139 234.951 231.109C235.161 231.064 235.37 231.005 235.579 230.93C235.803 230.855 236.02 230.781 236.229 230.706C236.348 230.646 236.468 230.594 236.587 230.549C236.707 230.489 236.819 230.429 236.923 230.37C237.013 230.325 237.095 230.273 237.17 230.213C237.26 230.153 237.342 230.101 237.416 230.056C237.506 230.011 237.588 229.966 237.663 229.922C237.723 229.847 237.79 229.795 237.865 229.765C237.939 229.72 238.007 229.668 238.066 229.608C238.141 229.533 238.231 229.451 238.335 229.361C238.873 228.823 239.321 228.428 239.68 228.174C240.053 227.92 240.449 227.793 240.867 227.793C241.256 227.793 241.562 227.935 241.786 228.218C242.025 228.502 242.145 228.846 242.145 229.249C242.145 229.996 241.898 230.706 241.405 231.378C240.912 232.035 240.24 232.626 239.388 233.148C238.537 233.656 237.566 234.06 236.475 234.359C235.4 234.657 234.279 234.807 233.114 234.807ZM230.47 205.092C230.514 205.152 230.567 205.234 230.626 205.338C230.701 205.443 230.768 205.555 230.828 205.675C230.948 205.929 230.873 206.22 230.604 206.549C230.335 206.862 230.006 207.139 229.618 207.378C229.244 207.602 228.938 207.714 228.699 207.714C228.624 207.714 228.55 207.714 228.475 207.714C228.4 207.699 228.333 207.662 228.273 207.602C228.229 207.557 228.161 207.49 228.072 207.4C227.982 207.296 227.915 207.213 227.87 207.154C227.601 206.765 227.519 206.384 227.624 206.011C227.728 205.637 227.96 205.331 228.318 205.092C228.677 204.838 229.065 204.711 229.484 204.711C229.693 204.711 229.879 204.748 230.044 204.823C230.223 204.883 230.365 204.972 230.47 205.092ZM221.304 224.857C222.126 224.484 223.142 224.05 224.352 223.557C225.562 223.064 226.802 222.594 228.072 222.145C228.58 221.951 229.02 221.906 229.394 222.011C229.767 222.116 230.036 222.34 230.201 222.683C230.425 223.072 230.455 223.46 230.29 223.849C230.141 224.222 229.805 224.558 229.282 224.857C228.102 225.484 226.914 226.097 225.719 226.695C224.539 227.292 223.47 227.8 222.514 228.218C221.737 228.577 221.087 228.719 220.565 228.644C220.057 228.555 219.691 228.233 219.467 227.681C219.257 227.143 219.287 226.635 219.556 226.157C219.84 225.679 220.423 225.245 221.304 224.857ZM234.1 223.154C233.472 223.154 232.964 222.952 232.576 222.549C232.188 222.145 231.993 221.54 231.993 220.734C231.993 220.061 232.21 219.509 232.643 219.075C233.076 218.627 233.726 218.403 234.593 218.403C235.265 218.403 235.788 218.605 236.162 219.008C236.55 219.397 236.744 219.927 236.744 220.599C236.744 221.496 236.535 222.145 236.117 222.549C235.713 222.952 235.041 223.154 234.1 223.154ZM238.94 230.594C239.03 230.698 239.112 230.825 239.187 230.975C239.276 231.109 239.344 231.236 239.388 231.356C239.598 231.804 239.5 232.185 239.097 232.499C238.709 232.812 238.298 232.969 237.865 232.969C237.655 232.969 237.461 232.917 237.282 232.812C237.118 232.708 236.983 232.581 236.879 232.431C236.834 232.357 236.789 232.282 236.744 232.207C236.714 232.118 236.684 232.043 236.655 231.983L238.94 230.594ZM236.162 233.686C236.281 234.493 236.386 235.3 236.475 236.106C236.565 236.928 236.64 237.765 236.699 238.616C236.729 239.259 236.602 239.729 236.318 240.028C236.035 240.342 235.571 240.499 234.929 240.499C234.436 240.499 234.055 240.342 233.786 240.028C233.532 239.714 233.368 239.214 233.293 238.527C233.233 237.81 233.174 237.055 233.114 236.263C233.054 235.472 233.009 234.642 232.979 233.776C232.979 233.328 233.144 232.984 233.472 232.745C233.801 232.506 234.152 232.387 234.526 232.387C234.914 232.387 235.265 232.491 235.579 232.7C235.893 232.909 236.087 233.238 236.162 233.686Z" fill="black"/>
<path d="M218.796 202.968C221.539 202.968 223.942 202.305 226.003 200.978C228.065 199.634 229.669 197.626 230.817 194.955C231.946 192.283 232.511 188.931 232.511 184.897C232.511 180.63 231.749 176.937 230.225 173.818C228.701 170.681 226.658 168.261 224.094 166.557C221.53 164.836 218.689 163.976 215.569 163.976C214.117 163.976 212.791 164.182 211.59 164.594C210.388 164.989 209.438 165.652 208.739 166.584C208.022 167.499 207.663 168.727 207.663 170.268C207.663 171.846 207.995 173.2 208.658 174.329C209.322 175.458 210.263 176.023 211.482 176.023C211.751 176.023 212.002 176.023 212.235 176.023C212.45 176.005 212.683 175.969 212.934 175.916C212.45 173.746 212.154 172.124 212.047 171.048C211.939 169.973 211.993 169.247 212.208 168.87C212.405 168.494 212.701 168.278 213.095 168.225C213.49 168.171 213.857 168.305 214.198 168.628C214.521 168.951 214.817 169.65 215.085 170.726C215.354 171.783 215.587 173.388 215.785 175.539C216.179 175.485 216.681 175.431 217.291 175.378C217.882 175.324 218.384 175.306 218.796 175.324C218.725 173.585 218.734 172.285 218.823 171.425C218.895 170.564 219.056 169.999 219.307 169.731C219.558 169.462 219.908 169.336 220.356 169.354C220.751 169.372 221.082 169.533 221.351 169.838C221.62 170.125 221.808 170.699 221.916 171.559C222.005 172.402 222.005 173.657 221.916 175.324C222.884 175.557 223.807 176.104 224.686 176.964C225.546 177.807 226.254 178.945 226.81 180.379C227.348 181.796 227.617 183.481 227.617 185.435C227.617 188.25 227.204 190.652 226.38 192.642C225.555 194.632 224.461 196.156 223.099 197.213C221.737 198.253 220.249 198.773 218.635 198.773C218.456 198.773 218.285 198.773 218.124 198.773C217.945 198.755 217.775 198.737 217.613 198.719C217.434 198.683 217.264 198.657 217.102 198.639C216.923 198.603 216.753 198.567 216.591 198.531C216.34 198.477 216.089 198.406 215.838 198.316C215.569 198.226 215.31 198.137 215.059 198.047C214.915 197.975 214.772 197.913 214.628 197.859C214.485 197.787 214.35 197.715 214.225 197.644C214.117 197.59 214.019 197.527 213.929 197.455C213.822 197.384 213.723 197.321 213.633 197.267C213.526 197.213 213.427 197.16 213.337 197.106C213.266 197.016 213.185 196.953 213.095 196.918C213.006 196.864 212.925 196.801 212.853 196.729C212.764 196.64 212.656 196.541 212.531 196.434C211.885 195.788 211.348 195.313 210.917 195.008C210.469 194.704 209.994 194.551 209.492 194.551C209.026 194.551 208.658 194.721 208.39 195.062C208.103 195.403 207.959 195.815 207.959 196.299C207.959 197.195 208.255 198.047 208.847 198.854C209.438 199.643 210.245 200.351 211.267 200.978C212.289 201.588 213.454 202.072 214.763 202.43C216.054 202.789 217.398 202.968 218.796 202.968ZM221.97 167.31C221.916 167.382 221.853 167.481 221.781 167.606C221.692 167.732 221.611 167.866 221.539 168.01C221.396 168.314 221.486 168.664 221.808 169.058C222.131 169.435 222.525 169.766 222.991 170.053C223.44 170.322 223.807 170.457 224.094 170.457C224.184 170.457 224.273 170.457 224.363 170.457C224.453 170.439 224.533 170.394 224.605 170.322C224.659 170.268 224.739 170.188 224.847 170.08C224.954 169.955 225.035 169.856 225.089 169.784C225.412 169.318 225.51 168.861 225.385 168.413C225.259 167.965 224.981 167.597 224.551 167.31C224.121 167.006 223.655 166.853 223.153 166.853C222.902 166.853 222.678 166.898 222.481 166.988C222.265 167.059 222.095 167.167 221.97 167.31ZM232.968 191.028C231.982 190.58 230.763 190.06 229.311 189.469C227.859 188.877 226.371 188.312 224.847 187.775C224.237 187.541 223.709 187.488 223.26 187.613C222.812 187.739 222.489 188.008 222.292 188.42C222.023 188.886 221.987 189.352 222.185 189.818C222.364 190.266 222.767 190.67 223.395 191.028C224.811 191.781 226.236 192.516 227.671 193.233C229.087 193.951 230.369 194.56 231.516 195.062C232.448 195.492 233.228 195.663 233.855 195.573C234.465 195.465 234.904 195.08 235.173 194.417C235.424 193.771 235.388 193.162 235.066 192.588C234.725 192.014 234.026 191.495 232.968 191.028ZM217.613 188.985C218.366 188.985 218.976 188.743 219.442 188.259C219.908 187.775 220.141 187.048 220.141 186.08C220.141 185.274 219.881 184.61 219.361 184.09C218.841 183.553 218.061 183.284 217.022 183.284C216.215 183.284 215.587 183.526 215.139 184.01C214.673 184.476 214.44 185.112 214.44 185.919C214.44 186.995 214.691 187.775 215.193 188.259C215.677 188.743 216.484 188.985 217.613 188.985ZM211.805 197.913C211.697 198.038 211.599 198.19 211.509 198.37C211.401 198.531 211.321 198.683 211.267 198.827C211.016 199.365 211.132 199.822 211.616 200.198C212.083 200.575 212.576 200.763 213.095 200.763C213.346 200.763 213.58 200.7 213.795 200.575C213.992 200.449 214.153 200.297 214.279 200.118C214.332 200.028 214.386 199.938 214.44 199.849C214.476 199.741 214.512 199.652 214.548 199.58L211.805 197.913ZM215.139 201.624C214.996 202.592 214.87 203.56 214.763 204.528C214.655 205.514 214.566 206.518 214.494 207.54C214.458 208.31 214.61 208.875 214.951 209.234C215.292 209.61 215.847 209.798 216.618 209.798C217.21 209.798 217.667 209.61 217.99 209.234C218.294 208.857 218.492 208.257 218.581 207.432C218.653 206.572 218.725 205.666 218.796 204.716C218.868 203.766 218.922 202.771 218.958 201.731C218.958 201.193 218.761 200.781 218.366 200.494C217.972 200.207 217.55 200.064 217.102 200.064C216.636 200.064 216.215 200.189 215.838 200.44C215.462 200.691 215.229 201.086 215.139 201.624Z" fill="black"/>
<path d="M207.537 202.968C204.794 202.968 202.391 202.305 200.33 200.978C198.268 199.634 196.664 197.626 195.516 194.955C194.387 192.283 193.822 188.931 193.822 184.897C193.822 180.63 194.584 176.937 196.108 173.818C197.632 170.681 199.675 168.261 202.239 166.557C204.803 164.836 207.644 163.976 210.764 163.976C212.216 163.976 213.542 164.182 214.743 164.594C215.945 164.989 216.895 165.652 217.594 166.584C218.311 167.499 218.67 168.727 218.67 170.268C218.67 171.846 218.338 173.2 217.675 174.329C217.011 175.458 216.07 176.023 214.851 176.023C214.582 176.023 214.331 176.023 214.098 176.023C213.883 176.005 213.65 175.969 213.399 175.916C213.883 173.746 214.179 172.124 214.286 171.048C214.394 169.973 214.34 169.247 214.125 168.87C213.928 168.494 213.632 168.278 213.238 168.225C212.843 168.171 212.476 168.305 212.135 168.628C211.812 168.951 211.516 169.65 211.248 170.726C210.979 171.783 210.746 173.388 210.548 175.539C210.154 175.485 209.652 175.431 209.043 175.378C208.451 175.324 207.949 175.306 207.537 175.324C207.608 173.585 207.599 172.285 207.51 171.425C207.438 170.564 207.277 169.999 207.026 169.731C206.775 169.462 206.425 169.336 205.977 169.354C205.583 169.372 205.251 169.533 204.982 169.838C204.713 170.125 204.525 170.699 204.417 171.559C204.328 172.402 204.328 173.657 204.417 175.324C203.449 175.557 202.526 176.104 201.647 176.964C200.787 177.807 200.079 178.945 199.523 180.379C198.985 181.796 198.716 183.481 198.716 185.435C198.716 188.25 199.129 190.652 199.953 192.642C200.778 194.632 201.872 196.156 203.234 197.213C204.596 198.253 206.084 198.773 207.698 198.773C207.877 198.773 208.048 198.773 208.209 198.773C208.388 198.755 208.558 198.737 208.72 198.719C208.899 198.683 209.069 198.657 209.231 198.639C209.41 198.603 209.58 198.567 209.742 198.531C209.993 198.477 210.244 198.406 210.495 198.316C210.764 198.226 211.023 198.137 211.274 198.047C211.418 197.975 211.561 197.913 211.705 197.859C211.848 197.787 211.983 197.715 212.108 197.644C212.216 197.59 212.314 197.527 212.404 197.455C212.511 197.384 212.61 197.321 212.7 197.267C212.807 197.213 212.906 197.16 212.996 197.106C213.067 197.016 213.148 196.953 213.238 196.918C213.327 196.864 213.408 196.801 213.48 196.729C213.569 196.64 213.677 196.541 213.802 196.434C214.448 195.788 214.985 195.313 215.416 195.008C215.864 194.704 216.339 194.551 216.841 194.551C217.307 194.551 217.675 194.721 217.943 195.062C218.23 195.403 218.374 195.815 218.374 196.299C218.374 197.195 218.078 198.047 217.486 198.854C216.895 199.643 216.088 200.351 215.066 200.978C214.044 201.588 212.879 202.072 211.57 202.43C210.28 202.789 208.935 202.968 207.537 202.968ZM204.363 167.31C204.417 167.382 204.48 167.481 204.552 167.606C204.641 167.732 204.722 167.866 204.794 168.01C204.937 168.314 204.847 168.664 204.525 169.058C204.202 169.435 203.808 169.766 203.342 170.053C202.893 170.322 202.526 170.457 202.239 170.457C202.149 170.457 202.06 170.457 201.97 170.457C201.88 170.439 201.8 170.394 201.728 170.322C201.674 170.268 201.594 170.188 201.486 170.08C201.379 169.955 201.298 169.856 201.244 169.784C200.921 169.318 200.823 168.861 200.948 168.413C201.074 167.965 201.352 167.597 201.782 167.31C202.212 167.006 202.678 166.853 203.18 166.853C203.431 166.853 203.655 166.898 203.853 166.988C204.068 167.059 204.238 167.167 204.363 167.31ZM193.365 191.028C194.351 190.58 195.57 190.06 197.022 189.469C198.474 188.877 199.962 188.312 201.486 187.775C202.096 187.541 202.624 187.488 203.073 187.613C203.521 187.739 203.844 188.008 204.041 188.42C204.31 188.886 204.346 189.352 204.148 189.818C203.969 190.266 203.566 190.67 202.938 191.028C201.522 191.781 200.097 192.516 198.663 193.233C197.246 193.951 195.964 194.56 194.817 195.062C193.885 195.492 193.105 195.663 192.478 195.573C191.868 195.465 191.429 195.08 191.16 194.417C190.909 193.771 190.945 193.162 191.267 192.588C191.608 192.014 192.307 191.495 193.365 191.028ZM208.72 188.985C207.967 188.985 207.357 188.743 206.891 188.259C206.425 187.775 206.192 187.048 206.192 186.08C206.192 185.274 206.452 184.61 206.972 184.09C207.492 183.553 208.272 183.284 209.311 183.284C210.118 183.284 210.746 183.526 211.194 184.01C211.66 184.476 211.893 185.112 211.893 185.919C211.893 186.995 211.642 187.775 211.14 188.259C210.656 188.743 209.849 188.985 208.72 188.985ZM214.528 197.913C214.636 198.038 214.734 198.19 214.824 198.37C214.932 198.531 215.012 198.683 215.066 198.827C215.317 199.365 215.201 199.822 214.717 200.198C214.25 200.575 213.757 200.763 213.238 200.763C212.987 200.763 212.753 200.7 212.538 200.575C212.341 200.449 212.18 200.297 212.054 200.118C212.001 200.028 211.947 199.938 211.893 199.849C211.857 199.741 211.821 199.652 211.785 199.58L214.528 197.913ZM211.194 201.624C211.337 202.592 211.463 203.56 211.57 204.528C211.678 205.514 211.767 206.518 211.839 207.54C211.875 208.31 211.723 208.875 211.382 209.234C211.041 209.61 210.486 209.798 209.715 209.798C209.123 209.798 208.666 209.61 208.343 209.234C208.039 208.857 207.841 208.257 207.752 207.432C207.68 206.572 207.608 205.666 207.537 204.716C207.465 203.766 207.411 202.771 207.375 201.731C207.375 201.193 207.572 200.781 207.967 200.494C208.361 200.207 208.783 200.064 209.231 200.064C209.697 200.064 210.118 200.189 210.495 200.44C210.871 200.691 211.104 201.086 211.194 201.624Z" fill="black"/>
</svg>
